<svg width="426" height="426" viewBox="0 0 426 426" fill="none" xmlns="http://www.w3.org/2000/svg">
<circle cx="213" cy="213" r="205.5" stroke="#55ACEE" stroke-width="15"/>
<path d="M341 133.628C331.58 137.805 321.458 140.628 310.834 141.898C321.679 135.398 330.006 125.105 333.927 112.841C323.618 118.959 312.338 123.269 300.576 125.586C290.995 115.379 277.346 109 262.239 109C233.233 109 209.716 132.516 209.716 161.52C209.716 165.637 210.181 169.645 211.076 173.49C167.426 171.299 128.726 150.39 102.821 118.614C98.301 126.371 95.711 135.394 95.711 145.018C95.711 163.24 104.984 179.315 119.076 188.734C110.735 188.473 102.578 186.22 95.286 182.164C95.283 182.384 95.283 182.604 95.283 182.825C95.283 208.272 113.387 229.5 137.413 234.325C129.679 236.428 121.566 236.736 113.695 235.225C120.378 256.091 139.775 271.275 162.757 271.7C144.782 285.786 122.135 294.183 97.529 294.183C93.289 294.183 89.109 293.934 85 293.449C108.243 308.351 135.85 317.046 165.51 317.046C262.117 317.046 314.944 237.015 314.944 167.611C314.944 165.333 314.894 163.068 314.792 160.816C325.074 153.383 333.949 144.176 341 133.628Z" fill="#55ACEE"/>
</svg>
